<?xml version="1.0" encoding="utf-8" standalone="no"?>
<!DOCTYPE svg PUBLIC "-//W3C//DTD SVG 1.1//EN"
  "http://www.w3.org/Graphics/SVG/1.1/DTD/svg11.dtd">
<svg xmlns:xlink="http://www.w3.org/1999/xlink" width="864pt" height="1152pt" viewBox="0 0 864 1152" xmlns="http://www.w3.org/2000/svg" version="1.1">
 <metadata>
  <rdf:RDF xmlns:dc="http://purl.org/dc/elements/1.1/" xmlns:cc="http://creativecommons.org/ns#" xmlns:rdf="http://www.w3.org/1999/02/22-rdf-syntax-ns#">
   <cc:Work>
    <dc:type rdf:resource="http://purl.org/dc/dcmitype/StillImage"/>
    <dc:date>2025-02-04T10:34:16.955009</dc:date>
    <dc:format>image/svg+xml</dc:format>
    <dc:creator>
     <cc:Agent>
      <dc:title>Matplotlib v3.9.2, https://matplotlib.org/</dc:title>
     </cc:Agent>
    </dc:creator>
   </cc:Work>
  </rdf:RDF>
 </metadata>
 <defs>
  <style type="text/css">*{stroke-linejoin: round; stroke-linecap: butt}</style>
 </defs>
 <g id="figure_1">
  <g id="patch_1">
   <path d="M 0 1152 
L 864 1152 
L 864 0 
L 0 0 
z
" style="fill: #ffffff"/>
  </g>
  <g id="axes_1">
   <g id="patch_2">
    <path d="M 57.62 551.46 
L 845.28 551.46 
L 845.28 28.32 
L 57.62 28.32 
z
" style="fill: #ffffff"/>
   </g>
   <g id="PolyCollection_1">
    <path d="M 57.62 139.586981 
L 57.62 551.46 
L 65.544242 551.46 
L 73.468483 551.46 
L 81.392725 551.46 
L 89.316967 551.46 
L 97.241208 551.46 
L 105.16545 551.46 
L 113.089692 551.46 
L 121.013933 551.46 
L 128.938175 551.46 
L 136.862417 551.46 
L 144.786658 551.46 
L 152.7109 551.46 
L 160.635142 551.46 
L 168.559383 551.46 
L 176.483625 551.46 
L 184.407867 551.46 
L 192.332108 551.46 
L 200.25635 551.46 
L 208.180591 551.46 
L 216.104833 551.46 
L 224.029075 551.46 
L 231.953316 551.46 
L 239.877558 551.46 
L 247.8018 551.46 
L 255.726041 551.46 
L 263.650283 551.46 
L 271.574525 551.46 
L 279.498766 551.46 
L 287.423008 551.46 
L 295.34725 551.46 
L 303.271491 551.46 
L 311.195733 551.46 
L 319.119975 551.46 
L 327.044216 551.46 
L 334.968458 551.46 
L 342.8927 551.46 
L 350.816941 551.46 
L 358.741183 551.46 
L 366.665425 551.46 
L 374.589666 551.46 
L 382.513908 551.46 
L 390.43815 551.46 
L 398.362391 551.46 
L 406.286633 551.46 
L 414.210875 551.46 
L 422.135116 551.46 
L 430.059358 551.46 
L 437.9836 551.46 
L 445.907841 551.46 
L 453.832083 551.46 
L 461.756325 551.46 
L 469.680566 551.46 
L 477.604808 551.46 
L 485.529049 551.46 
L 493.453291 551.46 
L 501.377533 551.46 
L 509.301774 551.46 
L 517.226016 551.46 
L 525.150258 551.46 
L 533.074499 551.46 
L 540.998741 551.46 
L 548.922983 551.46 
L 556.847224 551.46 
L 564.771466 551.46 
L 572.695708 551.46 
L 580.619949 551.46 
L 588.544191 551.46 
L 596.468433 551.46 
L 604.392674 551.46 
L 612.316916 551.46 
L 620.241158 551.46 
L 628.165399 551.46 
L 636.089641 551.46 
L 644.013883 551.46 
L 651.938124 551.46 
L 659.862366 551.46 
L 667.786608 551.46 
L 675.710849 551.46 
L 683.635091 551.46 
L 691.559333 551.46 
L 699.483574 551.46 
L 707.407816 551.46 
L 715.332058 551.46 
L 723.256299 551.46 
L 731.180541 551.46 
L 739.104783 551.46 
L 747.029024 551.46 
L 754.953266 551.46 
L 762.877508 551.46 
L 770.801749 551.46 
L 778.725991 551.46 
L 786.650232 551.46 
L 794.574474 551.46 
L 802.498716 551.46 
L 810.422957 551.46 
L 818.347199 551.46 
L 826.271441 551.46 
L 834.195682 551.46 
L 842.119924 551.46 
L 850.044166 551.46 
L 857.968407 551.46 
L 865.892649 551.46 
L 873.816891 551.46 
L 881.741132 551.46 
L 889.665374 551.46 
L 897.589616 551.46 
L 905.513857 551.46 
L 913.438099 551.46 
L 921.362341 551.46 
L 929.286582 551.46 
L 937.210824 551.46 
L 945.135066 551.46 
L 953.059307 551.46 
L 960.983549 551.46 
L 968.907791 551.46 
L 976.832032 551.46 
L 984.756274 551.46 
L 992.680516 551.46 
L 1000.604757 551.46 
L 1008.528999 551.46 
L 1016.453241 551.46 
L 1024.377482 551.46 
L 1032.301724 551.46 
L 1040.225966 551.46 
L 1048.150207 551.46 
L 1056.074449 551.46 
L 1063.99869 551.46 
L 1071.922932 551.46 
L 1079.847174 551.46 
L 1087.771415 551.46 
L 1095.695657 551.46 
L 1103.619899 551.46 
L 1111.54414 551.46 
L 1119.468382 551.46 
L 1127.392624 551.46 
L 1135.316865 551.46 
L 1143.241107 551.46 
L 1151.165349 551.46 
L 1159.08959 551.46 
L 1167.013832 551.46 
L 1174.938074 551.46 
L 1182.862315 551.46 
L 1190.786557 551.46 
L 1198.710799 551.46 
L 1206.63504 551.46 
L 1214.559282 551.46 
L 1222.483524 551.46 
L 1230.407765 551.46 
L 1238.332007 551.46 
L 1246.256249 551.46 
L 1254.18049 551.46 
L 1262.104732 551.46 
L 1270.028974 551.46 
L 1277.953215 551.46 
L 1285.877457 551.46 
L 1293.801699 551.46 
L 1301.72594 551.46 
L 1309.650182 551.46 
L 1317.574424 551.46 
L 1325.498665 551.46 
L 1333.422907 551.46 
L 1341.347148 551.46 
L 1349.27139 551.46 
L 1357.195632 551.46 
L 1365.119873 551.46 
L 1373.044115 551.46 
L 1380.968357 551.46 
L 1388.892598 551.46 
L 1396.81684 551.46 
L 1404.741082 551.46 
L 1412.665323 551.46 
L 1420.589565 551.46 
L 1428.513807 551.46 
L 1436.438048 551.46 
L 1444.36229 551.46 
L 1452.286532 551.46 
L 1460.210773 551.46 
L 1468.135015 551.46 
L 1476.059257 551.46 
L 1483.983498 551.46 
L 1491.90774 551.46 
L 1499.831982 551.46 
L 1507.756223 551.46 
L 1515.680465 551.46 
L 1523.604707 551.46 
L 1531.528948 551.46 
L 1539.45319 551.46 
L 1547.377432 551.46 
L 1555.301673 551.46 
L 1563.225915 551.46 
L 1571.150157 551.46 
L 1579.074398 551.46 
L 1586.99864 551.46 
L 1594.922882 551.46 
L 1602.847123 551.46 
L 1610.771365 551.46 
L 1618.695606 551.46 
L 1626.619848 551.46 
L 1634.54409 551.46 
L 1634.54409 551.456001 
L 1634.54409 551.456001 
L 1626.619848 551.449645 
L 1618.695606 551.435813 
L 1610.771365 551.409027 
L 1602.847123 551.363068 
L 1594.922882 551.293655 
L 1586.99864 551.202363 
L 1579.074398 551.099835 
L 1571.150157 551.005517 
L 1563.225915 550.9423 
L 1555.301673 550.927655 
L 1547.377432 550.965842 
L 1539.45319 551.045916 
L 1531.528948 551.146781 
L 1523.604707 551.246144 
L 1515.680465 551.328206 
L 1507.756223 551.386672 
L 1499.831982 551.423081 
L 1491.90774 551.442884 
L 1483.983498 551.451803 
L 1476.059257 551.453699 
L 1468.135015 551.449867 
L 1460.210773 551.439238 
L 1452.286532 551.419222 
L 1444.36229 551.38728 
L 1436.438048 551.343169 
L 1428.513807 551.291077 
L 1420.589565 551.240227 
L 1412.665323 551.202718 
L 1404.741082 551.188981 
L 1396.81684 551.203101 
L 1388.892598 551.240829 
L 1380.968357 551.291556 
L 1373.044115 551.342905 
L 1365.119873 551.385045 
L 1357.195632 551.412522 
L 1349.27139 551.423412 
L 1341.347148 551.417364 
L 1333.422907 551.394424 
L 1325.498665 551.355583 
L 1317.574424 551.30447 
L 1309.650182 551.248428 
L 1301.72594 551.197275 
L 1293.801699 551.15958 
L 1285.877457 551.138597 
L 1277.953215 551.130952 
L 1270.028974 551.129659 
L 1262.104732 551.129638 
L 1254.18049 551.131616 
L 1246.256249 551.141254 
L 1238.332007 551.164036 
L 1230.407765 551.199639 
L 1222.483524 551.239724 
L 1214.559282 551.270373 
L 1206.63504 551.2775 
L 1198.710799 551.252444 
L 1190.786557 551.195718 
L 1182.862315 551.11797 
L 1174.938074 551.037816 
L 1167.013832 550.976744 
L 1159.08959 550.952344 
L 1151.165349 550.972376 
L 1143.241107 551.032368 
L 1135.316865 551.117945 
L 1127.392624 551.210696 
L 1119.468382 551.294622 
L 1111.54414 551.360273 
L 1103.619899 551.405391 
L 1095.695657 551.432833 
L 1087.771415 551.447569 
L 1079.847174 551.454228 
L 1071.922932 551.455754 
L 1063.99869 551.452903 
L 1056.074449 551.444107 
L 1048.150207 551.425566 
L 1040.225966 551.391878 
L 1032.301724 551.337766 
L 1024.377482 551.261003 
L 1016.453241 551.165518 
L 1008.528999 551.062639 
L 1000.604757 550.968492 
L 992.680516 550.897688 
L 984.756274 550.856371 
L 976.832032 550.839351 
L 968.907791 550.834131 
L 960.983549 550.829936 
L 953.059307 550.825714 
L 945.135066 550.831194 
L 937.210824 550.859852 
L 929.286582 550.918598 
L 921.362341 551.001255 
L 913.438099 551.090003 
L 905.513857 551.163407 
L 897.589616 551.205928 
L 889.665374 551.21381 
L 881.741132 551.194979 
L 873.816891 551.16368 
L 865.892649 551.132786 
L 857.968407 551.107493 
L 850.044166 551.08328 
L 842.119924 551.04849 
L 834.195682 550.989389 
L 826.271441 550.894929 
L 818.347199 550.760172 
L 810.422957 550.588976 
L 802.498716 550.395931 
L 794.574474 550.20545 
L 786.650232 550.046015 
L 778.725991 549.941078 
L 770.801749 549.901793 
L 762.877508 549.925982 
L 754.953266 550.002684 
L 747.029024 550.117415 
L 739.104783 550.2541 
L 731.180541 550.393993 
L 723.256299 550.515187 
L 715.332058 550.595748 
L 707.407816 550.620342 
L 699.483574 550.587137 
L 691.559333 550.510535 
L 683.635091 550.416823 
L 675.710849 550.333845 
L 667.786608 550.27987 
L 659.862366 550.257536 
L 651.938124 550.25526 
L 644.013883 550.253555 
L 636.089641 550.231656 
L 628.165399 550.171778 
L 620.241158 550.06165 
L 612.316916 549.897368 
L 604.392674 549.687217 
L 596.468433 549.454457 
L 588.544191 549.235469 
L 580.619949 549.070801 
L 572.695708 548.990848 
L 564.771466 549.002957 
L 556.847224 549.088192 
L 548.922983 549.211043 
L 540.998741 549.336544 
L 533.074499 549.443769 
L 525.150258 549.527713 
L 517.226016 549.590687 
L 509.301774 549.631277 
L 501.377533 549.638453 
L 493.453291 549.592596 
L 485.529049 549.470919 
L 477.604808 549.25489 
L 469.680566 548.939143 
L 461.756325 548.540514 
L 453.832083 548.102559 
L 445.907841 547.689394 
L 437.9836 547.366987 
L 430.059358 547.178312 
L 422.135116 547.124881 
L 414.210875 547.165195 
L 406.286633 547.231373 
L 398.362391 547.254979 
L 390.43815 547.188919 
L 382.513908 547.01615 
L 374.589666 546.744312 
L 366.665425 546.392739 
L 358.741183 545.980695 
L 350.816941 545.522478 
L 342.8927 545.029606 
L 334.968458 544.516235 
L 327.044216 544.003239 
L 319.119975 543.517414 
L 311.195733 543.083926 
L 303.271491 542.712915 
L 295.34725 542.38571 
L 287.423008 542.04999 
L 279.498766 541.631582 
L 271.574525 541.06176 
L 263.650283 540.307393 
L 255.726041 539.385447 
L 247.8018 538.348965 
L 239.877558 537.247255 
L 231.953316 536.080237 
L 224.029075 534.77441 
L 216.104833 533.198145 
L 208.180591 531.210459 
L 200.25635 528.715303 
L 192.332108 525.689207 
L 184.407867 522.165252 
L 176.483625 518.173864 
L 168.559383 513.643255 
L 160.635142 508.249951 
L 152.7109 501.202525 
L 144.786658 490.964087 
L 136.862417 474.993473 
L 128.938175 449.720233 
L 121.013933 411.115099 
L 113.089692 356.207705 
L 105.16545 285.499235 
L 97.241208 205.377507 
L 89.316967 128.840994 
L 81.392725 72.974699 
L 73.468483 53.231429 
L 65.544242 76.92546 
L 57.62 139.586981 
z
" clip-path="url(#pceaced2bbf)" style="fill: #4daf4a; fill-opacity: 0.5; stroke: #4daf4a"/>
   </g>
   <g id="PolyCollection_2">
    <path d="M 57.62 229.175857 
L 57.62 551.46 
L 65.288273 551.46 
L 72.956547 551.46 
L 80.62482 551.46 
L 88.293093 551.46 
L 95.961366 551.46 
L 103.62964 551.46 
L 111.297913 551.46 
L 118.966186 551.46 
L 126.63446 551.46 
L 134.302733 551.46 
L 141.971006 551.46 
L 149.639279 551.46 
L 157.307553 551.46 
L 164.975826 551.46 
L 172.644099 551.46 
L 180.312372 551.46 
L 187.980646 551.46 
L 195.648919 551.46 
L 203.317192 551.46 
L 210.985466 551.46 
L 218.653739 551.46 
L 226.322012 551.46 
L 233.990285 551.46 
L 241.658559 551.46 
L 249.326832 551.46 
L 256.995105 551.46 
L 264.663379 551.46 
L 272.331652 551.46 
L 279.999925 551.46 
L 287.668198 551.46 
L 295.336472 551.46 
L 303.004745 551.46 
L 310.673018 551.46 
L 318.341292 551.46 
L 326.009565 551.46 
L 333.677838 551.46 
L 341.346111 551.46 
L 349.014385 551.46 
L 356.682658 551.46 
L 364.350931 551.46 
L 372.019204 551.46 
L 379.687478 551.46 
L 387.355751 551.46 
L 395.024024 551.46 
L 402.692298 551.46 
L 410.360571 551.46 
L 418.028844 551.46 
L 425.697117 551.46 
L 433.365391 551.46 
L 441.033664 551.46 
L 448.701937 551.46 
L 456.370211 551.46 
L 464.038484 551.46 
L 471.706757 551.46 
L 479.37503 551.46 
L 487.043304 551.46 
L 494.711577 551.46 
L 502.37985 551.46 
L 510.048123 551.46 
L 517.716397 551.46 
L 525.38467 551.46 
L 533.052943 551.46 
L 540.721217 551.46 
L 548.38949 551.46 
L 556.057763 551.46 
L 563.726036 551.46 
L 571.39431 551.46 
L 579.062583 551.46 
L 586.730856 551.46 
L 594.39913 551.46 
L 602.067403 551.46 
L 609.735676 551.46 
L 617.403949 551.46 
L 625.072223 551.46 
L 632.740496 551.46 
L 640.408769 551.46 
L 648.077043 551.46 
L 655.745316 551.46 
L 663.413589 551.46 
L 671.081862 551.46 
L 678.750136 551.46 
L 686.418409 551.46 
L 694.086682 551.46 
L 701.754955 551.46 
L 709.423229 551.46 
L 717.091502 551.46 
L 724.759775 551.46 
L 732.428049 551.46 
L 740.096322 551.46 
L 747.764595 551.46 
L 755.432868 551.46 
L 763.101142 551.46 
L 770.769415 551.46 
L 778.437688 551.46 
L 786.105962 551.46 
L 793.774235 551.46 
L 801.442508 551.46 
L 809.110781 551.46 
L 816.779055 551.46 
L 824.447328 551.46 
L 832.115601 551.46 
L 839.783875 551.46 
L 847.452148 551.46 
L 855.120421 551.46 
L 862.788694 551.46 
L 870.456968 551.46 
L 878.125241 551.46 
L 885.793514 551.46 
L 893.461787 551.46 
L 901.130061 551.46 
L 908.798334 551.46 
L 916.466607 551.46 
L 924.134881 551.46 
L 931.803154 551.46 
L 939.471427 551.46 
L 947.1397 551.46 
L 954.807974 551.46 
L 962.476247 551.46 
L 970.14452 551.46 
L 977.812794 551.46 
L 985.481067 551.46 
L 993.14934 551.46 
L 1000.817613 551.46 
L 1008.485887 551.46 
L 1016.15416 551.46 
L 1023.822433 551.46 
L 1031.490707 551.46 
L 1039.15898 551.46 
L 1046.827253 551.46 
L 1054.495526 551.46 
L 1062.1638 551.46 
L 1069.832073 551.46 
L 1077.500346 551.46 
L 1085.168619 551.46 
L 1092.836893 551.46 
L 1100.505166 551.46 
L 1108.173439 551.46 
L 1115.841713 551.46 
L 1123.509986 551.46 
L 1131.178259 551.46 
L 1138.846532 551.46 
L 1146.514806 551.46 
L 1154.183079 551.46 
L 1161.851352 551.46 
L 1169.519626 551.46 
L 1177.187899 551.46 
L 1184.856172 551.46 
L 1192.524445 551.46 
L 1200.192719 551.46 
L 1207.860992 551.46 
L 1215.529265 551.46 
L 1223.197538 551.46 
L 1230.865812 551.46 
L 1238.534085 551.46 
L 1246.202358 551.46 
L 1253.870632 551.46 
L 1261.538905 551.46 
L 1269.207178 551.46 
L 1276.875451 551.46 
L 1284.543725 551.46 
L 1292.211998 551.46 
L 1299.880271 551.46 
L 1307.548545 551.46 
L 1315.216818 551.46 
L 1322.885091 551.46 
L 1330.553364 551.46 
L 1338.221638 551.46 
L 1345.889911 551.46 
L 1353.558184 551.46 
L 1361.226458 551.46 
L 1368.894731 551.46 
L 1376.563004 551.46 
L 1384.231277 551.46 
L 1391.899551 551.46 
L 1399.567824 551.46 
L 1407.236097 551.46 
L 1414.90437 551.46 
L 1422.572644 551.46 
L 1430.240917 551.46 
L 1437.90919 551.46 
L 1445.577464 551.46 
L 1453.245737 551.46 
L 1460.91401 551.46 
L 1468.582283 551.46 
L 1476.250557 551.46 
L 1483.91883 551.46 
L 1491.587103 551.46 
L 1499.255377 551.46 
L 1506.92365 551.46 
L 1514.591923 551.46 
L 1522.260196 551.46 
L 1529.92847 551.46 
L 1537.596743 551.46 
L 1545.265016 551.46 
L 1552.93329 551.46 
L 1560.601563 551.46 
L 1568.269836 551.46 
L 1575.938109 551.46 
L 1583.606383 551.46 
L 1583.606383 551.456861 
L 1583.606383 551.456861 
L 1575.938109 551.452072 
L 1568.269836 551.441939 
L 1560.601563 551.422835 
L 1552.93329 551.390799 
L 1545.265016 551.343117 
L 1537.596743 551.280291 
L 1529.92847 551.207317 
L 1522.260196 551.133203 
L 1514.591923 551.068687 
L 1506.92365 551.023347 
L 1499.255377 551.00361 
L 1491.587103 551.012119 
L 1483.91883 551.047748 
L 1476.250557 551.105573 
L 1468.582283 551.177122 
L 1460.91401 551.251798 
L 1453.245737 551.319554 
L 1445.577464 551.373611 
L 1437.90919 551.411736 
L 1430.240917 551.43558 
L 1422.572644 551.448832 
L 1414.90437 551.45539 
L 1407.236097 551.458284 
L 1399.567824 551.459425 
L 1391.899551 551.459826 
L 1384.231277 551.459953 
L 1376.563004 551.459988 
L 1368.894731 551.459997 
L 1361.226458 551.459999 
L 1353.558184 551.46 
L 1345.889911 551.46 
L 1338.221638 551.46 
L 1330.553364 551.46 
L 1322.885091 551.46 
L 1315.216818 551.46 
L 1307.548545 551.46 
L 1299.880271 551.46 
L 1292.211998 551.46 
L 1284.543725 551.46 
L 1276.875451 551.46 
L 1269.207178 551.46 
L 1261.538905 551.46 
L 1253.870632 551.46 
L 1246.202358 551.459999 
L 1238.534085 551.459996 
L 1230.865812 551.459981 
L 1223.197538 551.459927 
L 1215.529265 551.459741 
L 1207.860992 551.459172 
L 1200.192719 551.457621 
L 1192.524445 551.453849 
L 1184.856172 551.445686 
L 1177.187899 551.430026 
L 1169.519626 551.403515 
L 1161.851352 551.364206 
L 1154.183079 551.313801 
L 1146.514806 551.2592 
L 1138.846532 551.211807 
L 1131.178259 551.183926 
L 1123.509986 551.183635 
L 1115.841713 551.210996 
L 1108.173439 551.25798 
L 1100.505166 551.312103 
L 1092.836893 551.36137 
L 1085.168619 551.397588 
L 1077.500346 551.416649 
L 1069.832073 551.416518 
L 1062.1638 551.394827 
L 1054.495526 551.347721 
L 1046.827253 551.270619 
L 1039.15898 551.160512 
L 1031.490707 551.018887 
L 1023.822433 550.85419 
L 1016.15416 550.682664 
L 1008.485887 550.526219 
L 1000.817613 550.406595 
L 993.14934 550.337203 
L 985.481067 550.317009 
L 977.812794 550.331495 
L 970.14452 550.361876 
L 962.476247 550.397283 
L 954.807974 550.441294 
L 947.1397 550.507828 
L 939.471427 550.609453 
L 931.803154 550.746721 
L 924.134881 550.905672 
L 916.466607 551.064134 
L 908.798334 551.201579 
L 901.130061 551.306291 
L 893.461787 551.37687 
L 885.793514 551.41918 
L 878.125241 551.44182 
L 870.456968 551.452661 
L 862.788694 551.457309 
L 855.120421 551.459069 
L 847.452148 551.459567 
L 839.783875 551.459352 
L 832.115601 551.458202 
L 824.447328 551.455031 
L 816.779055 551.447492 
L 809.110781 551.431521 
L 801.442508 551.401337 
L 793.774235 551.350551 
L 786.105962 551.274713 
L 778.437688 551.174564 
L 770.769415 551.058006 
L 763.101142 550.938541 
L 755.432868 550.829763 
L 747.764595 550.738668 
L 740.096322 550.662511 
L 732.428049 550.592183 
L 724.759775 550.520173 
L 717.091502 550.447133 
L 709.423229 550.381849 
L 701.754955 550.334624 
L 694.086682 550.309375 
L 686.418409 550.30047 
L 678.750136 550.296277 
L 671.081862 550.286446 
L 663.413589 550.267853 
L 655.745316 550.245883 
L 648.077043 550.230956 
L 640.408769 550.232326 
L 632.740496 550.251591 
L 625.072223 550.278121 
L 617.403949 550.288704 
L 609.735676 550.253569 
L 602.067403 550.148704 
L 594.39913 549.970117 
L 586.730856 549.741974 
L 579.062583 549.511362 
L 571.39431 549.329275 
L 563.726036 549.226592 
L 556.057763 549.198715 
L 548.38949 549.208791 
L 540.721217 549.20887 
L 533.052943 549.167514 
L 525.38467 549.088089 
L 517.716397 549.006826 
L 510.048123 548.971276 
L 502.37985 549.011234 
L 494.711577 549.118492 
L 487.043304 549.246199 
L 479.37503 549.327208 
L 471.706757 549.301548 
L 464.038484 549.140851 
L 456.370211 548.860789 
L 448.701937 548.517278 
L 441.033664 548.187052 
L 433.365391 547.938915 
L 425.697117 547.807209 
L 418.028844 547.779502 
L 410.360571 547.80387 
L 402.692298 547.81133 
L 395.024024 547.743075 
L 387.355751 547.572543 
L 379.687478 547.315815 
L 372.019204 547.02636 
L 364.350931 546.77323 
L 356.682658 546.608903 
L 349.014385 546.54173 
L 341.346111 546.52985 
L 333.677838 546.502694 
L 326.009565 546.398436 
L 318.341292 546.194387 
L 310.673018 545.911177 
L 303.004745 545.588022 
L 295.336472 545.243879 
L 287.668198 544.847733 
L 279.999925 544.316727 
L 272.331652 543.546583 
L 264.663379 542.461576 
L 256.995105 541.05922 
L 249.326832 539.425005 
L 241.658559 537.70677 
L 233.990285 536.059523 
L 226.322012 534.586485 
L 218.653739 533.301567 
L 210.985466 532.125372 
L 203.317192 530.911127 
L 195.648919 529.485673 
L 187.980646 527.684231 
L 180.312372 525.356356 
L 172.644099 522.326331 
L 164.975826 518.302344 
L 157.307553 512.736989 
L 149.639279 504.645012 
L 141.971006 492.403191 
L 134.302733 473.626873 
L 126.63446 445.341316 
L 118.966186 404.755031 
L 111.297913 350.813082 
L 103.62964 286.216179 
L 95.961366 218.877316 
L 88.293093 161.405681 
L 80.62482 127.817282 
L 72.956547 128.323341 
L 65.288273 164.727009 
L 57.62 229.175857 
z
" clip-path="url(#pceaced2bbf)" style="fill: #377eb8; fill-opacity: 0.5; stroke: #377eb8"/>
   </g>
   <g id="PolyCollection_3">
    <path d="M 57.62 533.127519 
L 57.62 551.46 
L 175.682519 551.46 
L 293.745037 551.46 
L 411.807556 551.46 
L 529.870074 551.46 
L 647.932593 551.46 
L 765.995112 551.46 
L 884.05763 551.46 
L 1002.120149 551.46 
L 1120.182667 551.46 
L 1238.245186 551.46 
L 1356.307705 551.46 
L 1474.370223 551.46 
L 1592.432742 551.46 
L 1710.49526 551.46 
L 1828.557779 551.46 
L 1946.620297 551.46 
L 2064.682816 551.46 
L 2182.745335 551.46 
L 2300.807853 551.46 
L 2418.870372 551.46 
L 2536.93289 551.46 
L 2654.995409 551.46 
L 2773.057928 551.46 
L 2891.120446 551.46 
L 3009.182965 551.46 
L 3127.245483 551.46 
L 3245.308002 551.46 
L 3363.370521 551.46 
L 3481.433039 551.46 
L 3599.495558 551.46 
L 3717.558076 551.46 
L 3835.620595 551.46 
L 3953.683114 551.46 
L 4071.745632 551.46 
L 4189.808151 551.46 
L 4307.870669 551.46 
L 4425.933188 551.46 
L 4543.995707 551.46 
L 4662.058225 551.46 
L 4780.120744 551.46 
L 4898.183262 551.46 
L 5016.245781 551.46 
L 5134.3083 551.46 
L 5252.370818 551.46 
L 5370.433337 551.46 
L 5488.495855 551.46 
L 5606.558374 551.46 
L 5724.620892 551.46 
L 5842.683411 551.46 
L 5960.74593 551.46 
L 6078.808448 551.46 
L 6196.870967 551.46 
L 6314.933485 551.46 
L 6432.996004 551.46 
L 6551.058523 551.46 
L 6669.121041 551.46 
L 6787.18356 551.46 
L 6905.246078 551.46 
L 7023.308597 551.46 
L 7141.371116 551.46 
L 7259.433634 551.46 
L 7377.496153 551.46 
L 7495.558671 551.46 
L 7613.62119 551.46 
L 7731.683709 551.46 
L 7849.746227 551.46 
L 7967.808746 551.46 
L 8085.871264 551.46 
L 8203.933783 551.46 
L 8321.996302 551.46 
L 8440.05882 551.46 
L 8558.121339 551.46 
L 8676.183857 551.46 
L 8794.246376 551.46 
L 8912.308894 551.46 
L 9030.371413 551.46 
L 9148.433932 551.46 
L 9266.49645 551.46 
L 9384.558969 551.46 
L 9502.621487 551.46 
L 9620.684006 551.46 
L 9738.746525 551.46 
L 9856.809043 551.46 
L 9974.871562 551.46 
L 10092.93408 551.46 
L 10210.996599 551.46 
L 10329.059118 551.46 
L 10447.121636 551.46 
L 10565.184155 551.46 
L 10683.246673 551.46 
L 10801.309192 551.46 
L 10919.371711 551.46 
L 11037.434229 551.46 
L 11155.496748 551.46 
L 11273.559266 551.46 
L 11391.621785 551.46 
L 11509.684304 551.46 
L 11627.746822 551.46 
L 11745.809341 551.46 
L 11863.871859 551.46 
L 11981.934378 551.46 
L 12099.996896 551.46 
L 12218.059415 551.46 
L 12336.121934 551.46 
L 12454.184452 551.46 
L 12572.246971 551.46 
L 12690.309489 551.46 
L 12808.372008 551.46 
L 12926.434527 551.46 
L 13044.497045 551.46 
L 13162.559564 551.46 
L 13280.622082 551.46 
L 13398.684601 551.46 
L 13516.74712 551.46 
L 13634.809638 551.46 
L 13752.872157 551.46 
L 13870.934675 551.46 
L 13988.997194 551.46 
L 14107.059713 551.46 
L 14225.122231 551.46 
L 14343.18475 551.46 
L 14461.247268 551.46 
L 14579.309787 551.46 
L 14697.372306 551.46 
L 14815.434824 551.46 
L 14933.497343 551.46 
L 15051.559861 551.46 
L 15169.62238 551.46 
L 15287.684899 551.46 
L 15405.747417 551.46 
L 15523.809936 551.46 
L 15641.872454 551.46 
L 15759.934973 551.46 
L 15877.997491 551.46 
L 15996.06001 551.46 
L 16114.122529 551.46 
L 16232.185047 551.46 
L 16350.247566 551.46 
L 16468.310084 551.46 
L 16586.372603 551.46 
L 16704.435122 551.46 
L 16822.49764 551.46 
L 16940.560159 551.46 
L 17058.622677 551.46 
L 17176.685196 551.46 
L 17294.747715 551.46 
L 17412.810233 551.46 
L 17530.872752 551.46 
L 17648.93527 551.46 
L 17766.997789 551.46 
L 17885.060308 551.46 
L 18003.122826 551.46 
L 18121.185345 551.46 
L 18239.247863 551.46 
L 18357.310382 551.46 
L 18475.372901 551.46 
L 18593.435419 551.46 
L 18711.497938 551.46 
L 18829.560456 551.46 
L 18947.622975 551.46 
L 19065.685493 551.46 
L 19183.748012 551.46 
L 19301.810531 551.46 
L 19419.873049 551.46 
L 19537.935568 551.46 
L 19655.998086 551.46 
L 19774.060605 551.46 
L 19892.123124 551.46 
L 20010.185642 551.46 
L 20128.248161 551.46 
L 20246.310679 551.46 
L 20364.373198 551.46 
L 20482.435717 551.46 
L 20600.498235 551.46 
L 20718.560754 551.46 
L 20836.623272 551.46 
L 20954.685791 551.46 
L 21072.74831 551.46 
L 21190.810828 551.46 
L 21308.873347 551.46 
L 21426.935865 551.46 
L 21544.998384 551.46 
L 21663.060903 551.46 
L 21781.123421 551.46 
L 21899.18594 551.46 
L 22017.248458 551.46 
L 22135.310977 551.46 
L 22253.373496 551.46 
L 22371.436014 551.46 
L 22489.498533 551.46 
L 22607.561051 551.46 
L 22725.62357 551.46 
L 22843.686088 551.46 
L 22961.748607 551.46 
L 23079.811126 551.46 
L 23197.873644 551.46 
L 23315.936163 551.46 
L 23433.998681 551.46 
L 23552.0612 551.46 
L 23552.0612 551.459679 
L 23552.0612 551.459679 
L 23433.998681 551.458683 
L 23315.936163 551.455849 
L 23197.873644 551.449971 
L 23079.811126 551.441423 
L 22961.748607 551.433616 
L 22843.686088 551.43127 
L 22725.62357 551.436013 
L 22607.561051 551.444645 
L 22489.498533 551.452463 
L 22371.436014 551.457164 
L 22253.373496 551.459182 
L 22135.310977 551.459819 
L 22017.248458 551.459969 
L 21899.18594 551.459996 
L 21781.123421 551.46 
L 21663.060903 551.46 
L 21544.998384 551.46 
L 21426.935865 551.46 
L 21308.873347 551.46 
L 21190.810828 551.46 
L 21072.74831 551.46 
L 20954.685791 551.46 
L 20836.623272 551.46 
L 20718.560754 551.46 
L 20600.498235 551.46 
L 20482.435717 551.46 
L 20364.373198 551.46 
L 20246.310679 551.46 
L 20128.248161 551.46 
L 20010.185642 551.46 
L 19892.123124 551.46 
L 19774.060605 551.46 
L 19655.998086 551.46 
L 19537.935568 551.46 
L 19419.873049 551.46 
L 19301.810531 551.46 
L 19183.748012 551.46 
L 19065.685493 551.46 
L 18947.622975 551.46 
L 18829.560456 551.46 
L 18711.497938 551.46 
L 18593.435419 551.46 
L 18475.372901 551.46 
L 18357.310382 551.46 
L 18239.247863 551.46 
L 18121.185345 551.46 
L 18003.122826 551.46 
L 17885.060308 551.46 
L 17766.997789 551.46 
L 17648.93527 551.46 
L 17530.872752 551.46 
L 17412.810233 551.46 
L 17294.747715 551.46 
L 17176.685196 551.46 
L 17058.622677 551.46 
L 16940.560159 551.46 
L 16822.49764 551.46 
L 16704.435122 551.46 
L 16586.372603 551.46 
L 16468.310084 551.46 
L 16350.247566 551.46 
L 16232.185047 551.46 
L 16114.122529 551.46 
L 15996.06001 551.46 
L 15877.997491 551.46 
L 15759.934973 551.46 
L 15641.872454 551.46 
L 15523.809936 551.46 
L 15405.747417 551.46 
L 15287.684899 551.46 
L 15169.62238 551.46 
L 15051.559861 551.46 
L 14933.497343 551.46 
L 14815.434824 551.46 
L 14697.372306 551.46 
L 14579.309787 551.46 
L 14461.247268 551.46 
L 14343.18475 551.46 
L 14225.122231 551.46 
L 14107.059713 551.46 
L 13988.997194 551.46 
L 13870.934675 551.46 
L 13752.872157 551.46 
L 13634.809638 551.46 
L 13516.74712 551.46 
L 13398.684601 551.46 
L 13280.622082 551.46 
L 13162.559564 551.46 
L 13044.497045 551.46 
L 12926.434527 551.46 
L 12808.372008 551.46 
L 12690.309489 551.46 
L 12572.246971 551.46 
L 12454.184452 551.46 
L 12336.121934 551.46 
L 12218.059415 551.46 
L 12099.996896 551.46 
L 11981.934378 551.46 
L 11863.871859 551.46 
L 11745.809341 551.46 
L 11627.746822 551.46 
L 11509.684304 551.46 
L 11391.621785 551.46 
L 11273.559266 551.46 
L 11155.496748 551.46 
L 11037.434229 551.46 
L 10919.371711 551.46 
L 10801.309192 551.46 
L 10683.246673 551.46 
L 10565.184155 551.46 
L 10447.121636 551.46 
L 10329.059118 551.46 
L 10210.996599 551.46 
L 10092.93408 551.46 
L 9974.871562 551.46 
L 9856.809043 551.46 
L 9738.746525 551.46 
L 9620.684006 551.46 
L 9502.621487 551.46 
L 9384.558969 551.46 
L 9266.49645 551.46 
L 9148.433932 551.46 
L 9030.371413 551.46 
L 8912.308894 551.46 
L 8794.246376 551.46 
L 8676.183857 551.46 
L 8558.121339 551.459997 
L 8440.05882 551.459973 
L 8321.996302 551.459836 
L 8203.933783 551.459242 
L 8085.871264 551.457298 
L 7967.808746 551.452544 
L 7849.746227 551.443909 
L 7731.683709 551.432406 
L 7613.62119 551.421458 
L 7495.558671 551.414821 
L 7377.496153 551.414504 
L 7259.433634 551.42041 
L 7141.371116 551.430114 
L 7023.308597 551.438819 
L 6905.246078 551.44178 
L 6787.18356 551.438174 
L 6669.121041 551.43227 
L 6551.058523 551.429685 
L 6432.996004 551.431723 
L 6314.933485 551.434253 
L 6196.870967 551.433005 
L 6078.808448 551.42845 
L 5960.74593 551.42335 
L 5842.683411 551.416531 
L 5724.620892 551.403371 
L 5606.558374 551.384543 
L 5488.495855 551.369743 
L 5370.433337 551.366277 
L 5252.370818 551.364726 
L 5134.3083 551.342986 
L 5016.245781 551.288748 
L 4898.183262 551.21672 
L 4780.120744 551.159708 
L 4662.058225 551.138796 
L 4543.995707 551.142068 
L 4425.933188 551.135927 
L 4307.870669 551.098173 
L 4189.808151 551.037666 
L 4071.745632 550.982137 
L 3953.683114 550.949808 
L 3835.620595 550.932732 
L 3717.558076 550.906938 
L 3599.495558 550.857846 
L 3481.433039 550.787849 
L 3363.370521 550.693783 
L 3245.308002 550.549947 
L 3127.245483 550.331656 
L 3009.182965 550.055092 
L 2891.120446 549.776071 
L 2773.057928 549.535852 
L 2654.995409 549.31125 
L 2536.93289 549.026493 
L 2418.870372 548.613902 
L 2300.807853 548.06539 
L 2182.745335 547.440418 
L 2064.682816 546.835529 
L 1946.620297 546.337792 
L 1828.557779 545.984687 
L 1710.49526 545.75016 
L 1592.432742 545.5711 
L 1474.370223 545.40127 
L 1356.307705 545.24774 
L 1238.245186 545.1406 
L 1120.182667 545.019187 
L 1002.120149 544.581492 
L 884.05763 543.165417 
L 765.995112 539.766979 
L 647.932593 533.571753 
L 529.870074 525.325793 
L 411.807556 518.407191 
L 293.745037 517.208756 
L 175.682519 523.182831 
L 57.62 533.127519 
z
" clip-path="url(#pceaced2bbf)" style="fill: #e41a1c; fill-opacity: 0.5; stroke: #e41a1c"/>
   </g>
   <g id="matplotlib.axis_1">
    <g id="xtick_1">
     <g id="line2d_1">
      <defs>
       <path id="maf6fc6f8d0" d="M 0 0 
L 0 3.5 
" style="stroke: #000000; stroke-width: 0.8"/>
      </defs>
      <g>
       <use xlink:href="#maf6fc6f8d0" x="57.62" y="551.46" style="stroke: #000000; stroke-width: 0.8"/>
      </g>
     </g>
     <g id="text_1">
      <!-- 0 -->
      <g transform="translate(54.43875 566.058438) scale(0.1 -0.1)">
       <defs>
        <path id="DejaVuSans-30" d="M 2034 4250 
Q 1547 4250 1301 3770 
Q 1056 3291 1056 2328 
Q 1056 1369 1301 889 
Q 1547 409 2034 409 
Q 2525 409 2770 889 
Q 3016 1369 3016 2328 
Q 3016 3291 2770 3770 
Q 2525 4250 2034 4250 
z
M 2034 4750 
Q 2819 4750 3233 4129 
Q 3647 3509 3647 2328 
Q 3647 1150 3233 529 
Q 2819 -91 2034 -91 
Q 1250 -91 836 529 
Q 422 1150 422 2328 
Q 422 3509 836 4129 
Q 1250 4750 2034 4750 
z
" transform="scale(0.015625)"/>
       </defs>
       <use xlink:href="#DejaVuSans-30"/>
      </g>
     </g>
    </g>
    <g id="xtick_2">
     <g id="line2d_2">
      <g>
       <use xlink:href="#maf6fc6f8d0" x="162.641333" y="551.46" style="stroke: #000000; stroke-width: 0.8"/>
      </g>
     </g>
     <g id="text_2">
      <!-- 10 -->
      <g transform="translate(156.278833 566.058438) scale(0.1 -0.1)">
       <defs>
        <path id="DejaVuSans-31" d="M 794 531 
L 1825 531 
L 1825 4091 
L 703 3866 
L 703 4441 
L 1819 4666 
L 2450 4666 
L 2450 531 
L 3481 531 
L 3481 0 
L 794 0 
L 794 531 
z
" transform="scale(0.015625)"/>
       </defs>
       <use xlink:href="#DejaVuSans-31"/>
       <use xlink:href="#DejaVuSans-30" x="63.623047"/>
      </g>
     </g>
    </g>
    <g id="xtick_3">
     <g id="line2d_3">
      <g>
       <use xlink:href="#maf6fc6f8d0" x="267.662667" y="551.46" style="stroke: #000000; stroke-width: 0.8"/>
      </g>
     </g>
     <g id="text_3">
      <!-- 20 -->
      <g transform="translate(261.300167 566.058438) scale(0.1 -0.1)">
       <defs>
        <path id="DejaVuSans-32" d="M 1228 531 
L 3431 531 
L 3431 0 
L 469 0 
L 469 531 
Q 828 903 1448 1529 
Q 2069 2156 2228 2338 
Q 2531 2678 2651 2914 
Q 2772 3150 2772 3378 
Q 2772 3750 2511 3984 
Q 2250 4219 1831 4219 
Q 1534 4219 1204 4116 
Q 875 4013 500 3803 
L 500 4441 
Q 881 4594 1212 4672 
Q 1544 4750 1819 4750 
Q 2544 4750 2975 4387 
Q 3406 4025 3406 3419 
Q 3406 3131 3298 2873 
Q 3191 2616 2906 2266 
Q 2828 2175 2409 1742 
Q 1991 1309 1228 531 
z
" transform="scale(0.015625)"/>
       </defs>
       <use xlink:href="#DejaVuSans-32"/>
       <use xlink:href="#DejaVuSans-30" x="63.623047"/>
      </g>
     </g>
    </g>
    <g id="xtick_4">
     <g id="line2d_4">
      <g>
       <use xlink:href="#maf6fc6f8d0" x="372.684" y="551.46" style="stroke: #000000; stroke-width: 0.8"/>
      </g>
     </g>
     <g id="text_4">
      <!-- 30 -->
      <g transform="translate(366.3215 566.058438) scale(0.1 -0.1)">
       <defs>
        <path id="DejaVuSans-33" d="M 2597 2516 
Q 3050 2419 3304 2112 
Q 3559 1806 3559 1356 
Q 3559 666 3084 287 
Q 2609 -91 1734 -91 
Q 1441 -91 1130 -33 
Q 819 25 488 141 
L 488 750 
Q 750 597 1062 519 
Q 1375 441 1716 441 
Q 2309 441 2620 675 
Q 2931 909 2931 1356 
Q 2931 1769 2642 2001 
Q 2353 2234 1838 2234 
L 1294 2234 
L 1294 2753 
L 1863 2753 
Q 2328 2753 2575 2939 
Q 2822 3125 2822 3475 
Q 2822 3834 2567 4026 
Q 2313 4219 1838 4219 
Q 1578 4219 1281 4162 
Q 984 4106 628 3988 
L 628 4550 
Q 988 4650 1302 4700 
Q 1616 4750 1894 4750 
Q 2613 4750 3031 4423 
Q 3450 4097 3450 3541 
Q 3450 3153 3228 2886 
Q 3006 2619 2597 2516 
z
" transform="scale(0.015625)"/>
       </defs>
       <use xlink:href="#DejaVuSans-33"/>
       <use xlink:href="#DejaVuSans-30" x="63.623047"/>
      </g>
     </g>
    </g>
    <g id="xtick_5">
     <g id="line2d_5">
      <g>
       <use xlink:href="#maf6fc6f8d0" x="477.705333" y="551.46" style="stroke: #000000; stroke-width: 0.8"/>
      </g>
     </g>
     <g id="text_5">
      <!-- 40 -->
      <g transform="translate(471.342833 566.058438) scale(0.1 -0.1)">
       <defs>
        <path id="DejaVuSans-34" d="M 2419 4116 
L 825 1625 
L 2419 1625 
L 2419 4116 
z
M 2253 4666 
L 3047 4666 
L 3047 1625 
L 3713 1625 
L 3713 1100 
L 3047 1100 
L 3047 0 
L 2419 0 
L 2419 1100 
L 313 1100 
L 313 1709 
L 2253 4666 
z
" transform="scale(0.015625)"/>
       </defs>
       <use xlink:href="#DejaVuSans-34"/>
       <use xlink:href="#DejaVuSans-30" x="63.623047"/>
      </g>
     </g>
    </g>
    <g id="xtick_6">
     <g id="line2d_6">
      <g>
       <use xlink:href="#maf6fc6f8d0" x="582.726667" y="551.46" style="stroke: #000000; stroke-width: 0.8"/>
      </g>
     </g>
     <g id="text_6">
      <!-- 50 -->
      <g transform="translate(576.364167 566.058438) scale(0.1 -0.1)">
       <defs>
        <path id="DejaVuSans-35" d="M 691 4666 
L 3169 4666 
L 3169 4134 
L 1269 4134 
L 1269 2991 
Q 1406 3038 1543 3061 
Q 1681 3084 1819 3084 
Q 2600 3084 3056 2656 
Q 3513 2228 3513 1497 
Q 3513 744 3044 326 
Q 2575 -91 1722 -91 
Q 1428 -91 1123 -41 
Q 819 9 494 109 
L 494 744 
Q 775 591 1075 516 
Q 1375 441 1709 441 
Q 2250 441 2565 725 
Q 2881 1009 2881 1497 
Q 2881 1984 2565 2268 
Q 2250 2553 1709 2553 
Q 1456 2553 1204 2497 
Q 953 2441 691 2322 
L 691 4666 
z
" transform="scale(0.015625)"/>
       </defs>
       <use xlink:href="#DejaVuSans-35"/>
       <use xlink:href="#DejaVuSans-30" x="63.623047"/>
      </g>
     </g>
    </g>
    <g id="xtick_7">
     <g id="line2d_7">
      <g>
       <use xlink:href="#maf6fc6f8d0" x="687.748" y="551.46" style="stroke: #000000; stroke-width: 0.8"/>
      </g>
     </g>
     <g id="text_7">
      <!-- 60 -->
      <g transform="translate(681.3855 566.058438) scale(0.1 -0.1)">
       <defs>
        <path id="DejaVuSans-36" d="M 2113 2584 
Q 1688 2584 1439 2293 
Q 1191 2003 1191 1497 
Q 1191 994 1439 701 
Q 1688 409 2113 409 
Q 2538 409 2786 701 
Q 3034 994 3034 1497 
Q 3034 2003 2786 2293 
Q 2538 2584 2113 2584 
z
M 3366 4563 
L 3366 3988 
Q 3128 4100 2886 4159 
Q 2644 4219 2406 4219 
Q 1781 4219 1451 3797 
Q 1122 3375 1075 2522 
Q 1259 2794 1537 2939 
Q 1816 3084 2150 3084 
Q 2853 3084 3261 2657 
Q 3669 2231 3669 1497 
Q 3669 778 3244 343 
Q 2819 -91 2113 -91 
Q 1303 -91 875 529 
Q 447 1150 447 2328 
Q 447 3434 972 4092 
Q 1497 4750 2381 4750 
Q 2619 4750 2861 4703 
Q 3103 4656 3366 4563 
z
" transform="scale(0.015625)"/>
       </defs>
       <use xlink:href="#DejaVuSans-36"/>
       <use xlink:href="#DejaVuSans-30" x="63.623047"/>
      </g>
     </g>
    </g>
    <g id="xtick_8">
     <g id="line2d_8">
      <g>
       <use xlink:href="#maf6fc6f8d0" x="792.769333" y="551.46" style="stroke: #000000; stroke-width: 0.8"/>
      </g>
     </g>
     <g id="text_8">
      <!-- 70 -->
      <g transform="translate(786.406833 566.058438) scale(0.1 -0.1)">
       <defs>
        <path id="DejaVuSans-37" d="M 525 4666 
L 3525 4666 
L 3525 4397 
L 1831 0 
L 1172 0 
L 2766 4134 
L 525 4134 
L 525 4666 
z
" transform="scale(0.015625)"/>
       </defs>
       <use xlink:href="#DejaVuSans-37"/>
       <use xlink:href="#DejaVuSans-30" x="63.623047"/>
      </g>
     </g>
    </g>
    <g id="text_9">
     <!-- Duration (All Columns) -->
     <g transform="translate(372.005469 582.775938) scale(0.14 -0.14)">
      <defs>
       <path id="DejaVuSans-44" d="M 1259 4147 
L 1259 519 
L 2022 519 
Q 2988 519 3436 956 
Q 3884 1394 3884 2338 
Q 3884 3275 3436 3711 
Q 2988 4147 2022 4147 
L 1259 4147 
z
M 628 4666 
L 1925 4666 
Q 3281 4666 3915 4102 
Q 4550 3538 4550 2338 
Q 4550 1131 3912 565 
Q 3275 0 1925 0 
L 628 0 
L 628 4666 
z
" transform="scale(0.015625)"/>
       <path id="DejaVuSans-75" d="M 544 1381 
L 544 3500 
L 1119 3500 
L 1119 1403 
Q 1119 906 1312 657 
Q 1506 409 1894 409 
Q 2359 409 2629 706 
Q 2900 1003 2900 1516 
L 2900 3500 
L 3475 3500 
L 3475 0 
L 2900 0 
L 2900 538 
Q 2691 219 2414 64 
Q 2138 -91 1772 -91 
Q 1169 -91 856 284 
Q 544 659 544 1381 
z
M 1991 3584 
L 1991 3584 
z
" transform="scale(0.015625)"/>
       <path id="DejaVuSans-72" d="M 2631 2963 
Q 2534 3019 2420 3045 
Q 2306 3072 2169 3072 
Q 1681 3072 1420 2755 
Q 1159 2438 1159 1844 
L 1159 0 
L 581 0 
L 581 3500 
L 1159 3500 
L 1159 2956 
Q 1341 3275 1631 3429 
Q 1922 3584 2338 3584 
Q 2397 3584 2469 3576 
Q 2541 3569 2628 3553 
L 2631 2963 
z
" transform="scale(0.015625)"/>
       <path id="DejaVuSans-61" d="M 2194 1759 
Q 1497 1759 1228 1600 
Q 959 1441 959 1056 
Q 959 750 1161 570 
Q 1363 391 1709 391 
Q 2188 391 2477 730 
Q 2766 1069 2766 1631 
L 2766 1759 
L 2194 1759 
z
M 3341 1997 
L 3341 0 
L 2766 0 
L 2766 531 
Q 2569 213 2275 61 
Q 1981 -91 1556 -91 
Q 1019 -91 701 211 
Q 384 513 384 1019 
Q 384 1609 779 1909 
Q 1175 2209 1959 2209 
L 2766 2209 
L 2766 2266 
Q 2766 2663 2505 2880 
Q 2244 3097 1772 3097 
Q 1472 3097 1187 3025 
Q 903 2953 641 2809 
L 641 3341 
Q 956 3463 1253 3523 
Q 1550 3584 1831 3584 
Q 2591 3584 2966 3190 
Q 3341 2797 3341 1997 
z
" transform="scale(0.015625)"/>
       <path id="DejaVuSans-74" d="M 1172 4494 
L 1172 3500 
L 2356 3500 
L 2356 3053 
L 1172 3053 
L 1172 1153 
Q 1172 725 1289 603 
Q 1406 481 1766 481 
L 2356 481 
L 2356 0 
L 1766 0 
Q 1100 0 847 248 
Q 594 497 594 1153 
L 594 3053 
L 172 3053 
L 172 3500 
L 594 3500 
L 594 4494 
L 1172 4494 
z
" transform="scale(0.015625)"/>
       <path id="DejaVuSans-69" d="M 603 3500 
L 1178 3500 
L 1178 0 
L 603 0 
L 603 3500 
z
M 603 4863 
L 1178 4863 
L 1178 4134 
L 603 4134 
L 603 4863 
z
" transform="scale(0.015625)"/>
       <path id="DejaVuSans-6f" d="M 1959 3097 
Q 1497 3097 1228 2736 
Q 959 2375 959 1747 
Q 959 1119 1226 758 
Q 1494 397 1959 397 
Q 2419 397 2687 759 
Q 2956 1122 2956 1747 
Q 2956 2369 2687 2733 
Q 2419 3097 1959 3097 
z
M 1959 3584 
Q 2709 3584 3137 3096 
Q 3566 2609 3566 1747 
Q 3566 888 3137 398 
Q 2709 -91 1959 -91 
Q 1206 -91 779 398 
Q 353 888 353 1747 
Q 353 2609 779 3096 
Q 1206 3584 1959 3584 
z
" transform="scale(0.015625)"/>
       <path id="DejaVuSans-6e" d="M 3513 2113 
L 3513 0 
L 2938 0 
L 2938 2094 
Q 2938 2591 2744 2837 
Q 2550 3084 2163 3084 
Q 1697 3084 1428 2787 
Q 1159 2491 1159 1978 
L 1159 0 
L 581 0 
L 581 3500 
L 1159 3500 
L 1159 2956 
Q 1366 3272 1645 3428 
Q 1925 3584 2291 3584 
Q 2894 3584 3203 3211 
Q 3513 2838 3513 2113 
z
" transform="scale(0.015625)"/>
       <path id="DejaVuSans-20" transform="scale(0.015625)"/>
       <path id="DejaVuSans-28" d="M 1984 4856 
Q 1566 4138 1362 3434 
Q 1159 2731 1159 2009 
Q 1159 1288 1364 580 
Q 1569 -128 1984 -844 
L 1484 -844 
Q 1016 -109 783 600 
Q 550 1309 550 2009 
Q 550 2706 781 3412 
Q 1013 4119 1484 4856 
L 1984 4856 
z
" transform="scale(0.015625)"/>
       <path id="DejaVuSans-41" d="M 2188 4044 
L 1331 1722 
L 3047 1722 
L 2188 4044 
z
M 1831 4666 
L 2547 4666 
L 4325 0 
L 3669 0 
L 3244 1197 
L 1141 1197 
L 716 0 
L 50 0 
L 1831 4666 
z
" transform="scale(0.015625)"/>
       <path id="DejaVuSans-6c" d="M 603 4863 
L 1178 4863 
L 1178 0 
L 603 0 
L 603 4863 
z
" transform="scale(0.015625)"/>
       <path id="DejaVuSans-43" d="M 4122 4306 
L 4122 3641 
Q 3803 3938 3442 4084 
Q 3081 4231 2675 4231 
Q 1875 4231 1450 3742 
Q 1025 3253 1025 2328 
Q 1025 1406 1450 917 
Q 1875 428 2675 428 
Q 3081 428 3442 575 
Q 3803 722 4122 1019 
L 4122 359 
Q 3791 134 3420 21 
Q 3050 -91 2638 -91 
Q 1578 -91 968 557 
Q 359 1206 359 2328 
Q 359 3453 968 4101 
Q 1578 4750 2638 4750 
Q 3056 4750 3426 4639 
Q 3797 4528 4122 4306 
z
" transform="scale(0.015625)"/>
       <path id="DejaVuSans-6d" d="M 3328 2828 
Q 3544 3216 3844 3400 
Q 4144 3584 4550 3584 
Q 5097 3584 5394 3201 
Q 5691 2819 5691 2113 
L 5691 0 
L 5113 0 
L 5113 2094 
Q 5113 2597 4934 2840 
Q 4756 3084 4391 3084 
Q 3944 3084 3684 2787 
Q 3425 2491 3425 1978 
L 3425 0 
L 2847 0 
L 2847 2094 
Q 2847 2600 2669 2842 
Q 2491 3084 2119 3084 
Q 1678 3084 1418 2786 
Q 1159 2488 1159 1978 
L 1159 0 
L 581 0 
L 581 3500 
L 1159 3500 
L 1159 2956 
Q 1356 3278 1631 3431 
Q 1906 3584 2284 3584 
Q 2666 3584 2933 3390 
Q 3200 3197 3328 2828 
z
" transform="scale(0.015625)"/>
       <path id="DejaVuSans-73" d="M 2834 3397 
L 2834 2853 
Q 2591 2978 2328 3040 
Q 2066 3103 1784 3103 
Q 1356 3103 1142 2972 
Q 928 2841 928 2578 
Q 928 2378 1081 2264 
Q 1234 2150 1697 2047 
L 1894 2003 
Q 2506 1872 2764 1633 
Q 3022 1394 3022 966 
Q 3022 478 2636 193 
Q 2250 -91 1575 -91 
Q 1294 -91 989 -36 
Q 684 19 347 128 
L 347 722 
Q 666 556 975 473 
Q 1284 391 1588 391 
Q 1994 391 2212 530 
Q 2431 669 2431 922 
Q 2431 1156 2273 1281 
Q 2116 1406 1581 1522 
L 1381 1569 
Q 847 1681 609 1914 
Q 372 2147 372 2553 
Q 372 3047 722 3315 
Q 1072 3584 1716 3584 
Q 2034 3584 2315 3537 
Q 2597 3491 2834 3397 
z
" transform="scale(0.015625)"/>
       <path id="DejaVuSans-29" d="M 513 4856 
L 1013 4856 
Q 1481 4119 1714 3412 
Q 1947 2706 1947 2009 
Q 1947 1309 1714 600 
Q 1481 -109 1013 -844 
L 513 -844 
Q 928 -128 1133 580 
Q 1338 1288 1338 2009 
Q 1338 2731 1133 3434 
Q 928 4138 513 4856 
z
" transform="scale(0.015625)"/>
      </defs>
      <use xlink:href="#DejaVuSans-44"/>
      <use xlink:href="#DejaVuSans-75" x="77.001953"/>
      <use xlink:href="#DejaVuSans-72" x="140.380859"/>
      <use xlink:href="#DejaVuSans-61" x="181.494141"/>
      <use xlink:href="#DejaVuSans-74" x="242.773438"/>
      <use xlink:href="#DejaVuSans-69" x="281.982422"/>
      <use xlink:href="#DejaVuSans-6f" x="309.765625"/>
      <use xlink:href="#DejaVuSans-6e" x="370.947266"/>
      <use xlink:href="#DejaVuSans-20" x="434.326172"/>
      <use xlink:href="#DejaVuSans-28" x="466.113281"/>
      <use xlink:href="#DejaVuSans-41" x="505.126953"/>
      <use xlink:href="#DejaVuSans-6c" x="573.535156"/>
      <use xlink:href="#DejaVuSans-6c" x="601.318359"/>
      <use xlink:href="#DejaVuSans-20" x="629.101562"/>
      <use xlink:href="#DejaVuSans-43" x="660.888672"/>
      <use xlink:href="#DejaVuSans-6f" x="730.712891"/>
      <use xlink:href="#DejaVuSans-6c" x="791.894531"/>
      <use xlink:href="#DejaVuSans-75" x="819.677734"/>
      <use xlink:href="#DejaVuSans-6d" x="883.056641"/>
      <use xlink:href="#DejaVuSans-6e" x="980.46875"/>
      <use xlink:href="#DejaVuSans-73" x="1043.847656"/>
      <use xlink:href="#DejaVuSans-29" x="1095.947266"/>
     </g>
    </g>
   </g>
   <g id="matplotlib.axis_2">
    <g id="ytick_1">
     <g id="line2d_9">
      <defs>
       <path id="mfcf3bf0c70" d="M 0 0 
L -3.5 0 
" style="stroke: #000000; stroke-width: 0.8"/>
      </defs>
      <g>
       <use xlink:href="#mfcf3bf0c70" x="57.62" y="551.46" style="stroke: #000000; stroke-width: 0.8"/>
      </g>
     </g>
     <g id="text_10">
      <!-- 0.00 -->
      <g transform="translate(28.354375 555.259219) scale(0.1 -0.1)">
       <defs>
        <path id="DejaVuSans-2e" d="M 684 794 
L 1344 794 
L 1344 0 
L 684 0 
L 684 794 
z
" transform="scale(0.015625)"/>
       </defs>
       <use xlink:href="#DejaVuSans-30"/>
       <use xlink:href="#DejaVuSans-2e" x="63.623047"/>
       <use xlink:href="#DejaVuSans-30" x="95.410156"/>
       <use xlink:href="#DejaVuSans-30" x="159.033203"/>
      </g>
     </g>
    </g>
    <g id="ytick_2">
     <g id="line2d_10">
      <g>
       <use xlink:href="#mfcf3bf0c70" x="57.62" y="450.908857" style="stroke: #000000; stroke-width: 0.8"/>
      </g>
     </g>
     <g id="text_11">
      <!-- 0.01 -->
      <g transform="translate(28.354375 454.708075) scale(0.1 -0.1)">
       <use xlink:href="#DejaVuSans-30"/>
       <use xlink:href="#DejaVuSans-2e" x="63.623047"/>
       <use xlink:href="#DejaVuSans-30" x="95.410156"/>
       <use xlink:href="#DejaVuSans-31" x="159.033203"/>
      </g>
     </g>
    </g>
    <g id="ytick_3">
     <g id="line2d_11">
      <g>
       <use xlink:href="#mfcf3bf0c70" x="57.62" y="350.357713" style="stroke: #000000; stroke-width: 0.8"/>
      </g>
     </g>
     <g id="text_12">
      <!-- 0.02 -->
      <g transform="translate(28.354375 354.156932) scale(0.1 -0.1)">
       <use xlink:href="#DejaVuSans-30"/>
       <use xlink:href="#DejaVuSans-2e" x="63.623047"/>
       <use xlink:href="#DejaVuSans-30" x="95.410156"/>
       <use xlink:href="#DejaVuSans-32" x="159.033203"/>
      </g>
     </g>
    </g>
    <g id="ytick_4">
     <g id="line2d_12">
      <g>
       <use xlink:href="#mfcf3bf0c70" x="57.62" y="249.80657" style="stroke: #000000; stroke-width: 0.8"/>
      </g>
     </g>
     <g id="text_13">
      <!-- 0.03 -->
      <g transform="translate(28.354375 253.605789) scale(0.1 -0.1)">
       <use xlink:href="#DejaVuSans-30"/>
       <use xlink:href="#DejaVuSans-2e" x="63.623047"/>
       <use xlink:href="#DejaVuSans-30" x="95.410156"/>
       <use xlink:href="#DejaVuSans-33" x="159.033203"/>
      </g>
     </g>
    </g>
    <g id="ytick_5">
     <g id="line2d_13">
      <g>
       <use xlink:href="#mfcf3bf0c70" x="57.62" y="149.255427" style="stroke: #000000; stroke-width: 0.8"/>
      </g>
     </g>
     <g id="text_14">
      <!-- 0.04 -->
      <g transform="translate(28.354375 153.054645) scale(0.1 -0.1)">
       <use xlink:href="#DejaVuSans-30"/>
       <use xlink:href="#DejaVuSans-2e" x="63.623047"/>
       <use xlink:href="#DejaVuSans-30" x="95.410156"/>
       <use xlink:href="#DejaVuSans-34" x="159.033203"/>
      </g>
     </g>
    </g>
    <g id="ytick_6">
     <g id="line2d_14">
      <g>
       <use xlink:href="#mfcf3bf0c70" x="57.62" y="48.704283" style="stroke: #000000; stroke-width: 0.8"/>
      </g>
     </g>
     <g id="text_15">
      <!-- 0.05 -->
      <g transform="translate(28.354375 52.503502) scale(0.1 -0.1)">
       <use xlink:href="#DejaVuSans-30"/>
       <use xlink:href="#DejaVuSans-2e" x="63.623047"/>
       <use xlink:href="#DejaVuSans-30" x="95.410156"/>
       <use xlink:href="#DejaVuSans-35" x="159.033203"/>
      </g>
     </g>
    </g>
    <g id="text_16">
     <!-- Probability density -->
     <g transform="translate(21.442813 354.781094) rotate(-90) scale(0.14 -0.14)">
      <defs>
       <path id="DejaVuSans-50" d="M 1259 4147 
L 1259 2394 
L 2053 2394 
Q 2494 2394 2734 2622 
Q 2975 2850 2975 3272 
Q 2975 3691 2734 3919 
Q 2494 4147 2053 4147 
L 1259 4147 
z
M 628 4666 
L 2053 4666 
Q 2838 4666 3239 4311 
Q 3641 3956 3641 3272 
Q 3641 2581 3239 2228 
Q 2838 1875 2053 1875 
L 1259 1875 
L 1259 0 
L 628 0 
L 628 4666 
z
" transform="scale(0.015625)"/>
       <path id="DejaVuSans-62" d="M 3116 1747 
Q 3116 2381 2855 2742 
Q 2594 3103 2138 3103 
Q 1681 3103 1420 2742 
Q 1159 2381 1159 1747 
Q 1159 1113 1420 752 
Q 1681 391 2138 391 
Q 2594 391 2855 752 
Q 3116 1113 3116 1747 
z
M 1159 2969 
Q 1341 3281 1617 3432 
Q 1894 3584 2278 3584 
Q 2916 3584 3314 3078 
Q 3713 2572 3713 1747 
Q 3713 922 3314 415 
Q 2916 -91 2278 -91 
Q 1894 -91 1617 61 
Q 1341 213 1159 525 
L 1159 0 
L 581 0 
L 581 4863 
L 1159 4863 
L 1159 2969 
z
" transform="scale(0.015625)"/>
       <path id="DejaVuSans-79" d="M 2059 -325 
Q 1816 -950 1584 -1140 
Q 1353 -1331 966 -1331 
L 506 -1331 
L 506 -850 
L 844 -850 
Q 1081 -850 1212 -737 
Q 1344 -625 1503 -206 
L 1606 56 
L 191 3500 
L 800 3500 
L 1894 763 
L 2988 3500 
L 3597 3500 
L 2059 -325 
z
" transform="scale(0.015625)"/>
       <path id="DejaVuSans-64" d="M 2906 2969 
L 2906 4863 
L 3481 4863 
L 3481 0 
L 2906 0 
L 2906 525 
Q 2725 213 2448 61 
Q 2172 -91 1784 -91 
Q 1150 -91 751 415 
Q 353 922 353 1747 
Q 353 2572 751 3078 
Q 1150 3584 1784 3584 
Q 2172 3584 2448 3432 
Q 2725 3281 2906 2969 
z
M 947 1747 
Q 947 1113 1208 752 
Q 1469 391 1925 391 
Q 2381 391 2643 752 
Q 2906 1113 2906 1747 
Q 2906 2381 2643 2742 
Q 2381 3103 1925 3103 
Q 1469 3103 1208 2742 
Q 947 2381 947 1747 
z
" transform="scale(0.015625)"/>
       <path id="DejaVuSans-65" d="M 3597 1894 
L 3597 1613 
L 953 1613 
Q 991 1019 1311 708 
Q 1631 397 2203 397 
Q 2534 397 2845 478 
Q 3156 559 3463 722 
L 3463 178 
Q 3153 47 2828 -22 
Q 2503 -91 2169 -91 
Q 1331 -91 842 396 
Q 353 884 353 1716 
Q 353 2575 817 3079 
Q 1281 3584 2069 3584 
Q 2775 3584 3186 3129 
Q 3597 2675 3597 1894 
z
M 3022 2063 
Q 3016 2534 2758 2815 
Q 2500 3097 2075 3097 
Q 1594 3097 1305 2825 
Q 1016 2553 972 2059 
L 3022 2063 
z
" transform="scale(0.015625)"/>
      </defs>
      <use xlink:href="#DejaVuSans-50"/>
      <use xlink:href="#DejaVuSans-72" x="58.552734"/>
      <use xlink:href="#DejaVuSans-6f" x="97.416016"/>
      <use xlink:href="#DejaVuSans-62" x="158.597656"/>
      <use xlink:href="#DejaVuSans-61" x="222.074219"/>
      <use xlink:href="#DejaVuSans-62" x="283.353516"/>
      <use xlink:href="#DejaVuSans-69" x="346.830078"/>
      <use xlink:href="#DejaVuSans-6c" x="374.613281"/>
      <use xlink:href="#DejaVuSans-69" x="402.396484"/>
      <use xlink:href="#DejaVuSans-74" x="430.179688"/>
      <use xlink:href="#DejaVuSans-79" x="469.388672"/>
      <use xlink:href="#DejaVuSans-20" x="528.568359"/>
      <use xlink:href="#DejaVuSans-64" x="560.355469"/>
      <use xlink:href="#DejaVuSans-65" x="623.832031"/>
      <use xlink:href="#DejaVuSans-6e" x="685.355469"/>
      <use xlink:href="#DejaVuSans-73" x="748.734375"/>
      <use xlink:href="#DejaVuSans-69" x="800.833984"/>
      <use xlink:href="#DejaVuSans-74" x="828.617188"/>
      <use xlink:href="#DejaVuSans-79" x="867.826172"/>
     </g>
    </g>
   </g>
   <g id="patch_3">
    <path d="M 57.62 551.46 
L 57.62 28.32 
" style="fill: none; stroke: #000000; stroke-width: 0.8; stroke-linejoin: miter; stroke-linecap: square"/>
   </g>
   <g id="patch_4">
    <path d="M 845.28 551.46 
L 845.28 28.32 
" style="fill: none; stroke: #000000; stroke-width: 0.8; stroke-linejoin: miter; stroke-linecap: square"/>
   </g>
   <g id="patch_5">
    <path d="M 57.62 551.46 
L 845.28 551.46 
" style="fill: none; stroke: #000000; stroke-width: 0.8; stroke-linejoin: miter; stroke-linecap: square"/>
   </g>
   <g id="patch_6">
    <path d="M 57.62 28.32 
L 845.28 28.32 
" style="fill: none; stroke: #000000; stroke-width: 0.8; stroke-linejoin: miter; stroke-linecap: square"/>
   </g>
   <g id="text_17">
    <!-- PDF duration (All Columns) gruped by File -->
    <g transform="translate(284.2625 22.32) scale(0.16 -0.16)">
     <defs>
      <path id="DejaVuSans-46" d="M 628 4666 
L 3309 4666 
L 3309 4134 
L 1259 4134 
L 1259 2759 
L 3109 2759 
L 3109 2228 
L 1259 2228 
L 1259 0 
L 628 0 
L 628 4666 
z
" transform="scale(0.015625)"/>
      <path id="DejaVuSans-67" d="M 2906 1791 
Q 2906 2416 2648 2759 
Q 2391 3103 1925 3103 
Q 1463 3103 1205 2759 
Q 947 2416 947 1791 
Q 947 1169 1205 825 
Q 1463 481 1925 481 
Q 2391 481 2648 825 
Q 2906 1169 2906 1791 
z
M 3481 434 
Q 3481 -459 3084 -895 
Q 2688 -1331 1869 -1331 
Q 1566 -1331 1297 -1286 
Q 1028 -1241 775 -1147 
L 775 -588 
Q 1028 -725 1275 -790 
Q 1522 -856 1778 -856 
Q 2344 -856 2625 -561 
Q 2906 -266 2906 331 
L 2906 616 
Q 2728 306 2450 153 
Q 2172 0 1784 0 
Q 1141 0 747 490 
Q 353 981 353 1791 
Q 353 2603 747 3093 
Q 1141 3584 1784 3584 
Q 2172 3584 2450 3431 
Q 2728 3278 2906 2969 
L 2906 3500 
L 3481 3500 
L 3481 434 
z
" transform="scale(0.015625)"/>
      <path id="DejaVuSans-70" d="M 1159 525 
L 1159 -1331 
L 581 -1331 
L 581 3500 
L 1159 3500 
L 1159 2969 
Q 1341 3281 1617 3432 
Q 1894 3584 2278 3584 
Q 2916 3584 3314 3078 
Q 3713 2572 3713 1747 
Q 3713 922 3314 415 
Q 2916 -91 2278 -91 
Q 1894 -91 1617 61 
Q 1341 213 1159 525 
z
M 3116 1747 
Q 3116 2381 2855 2742 
Q 2594 3103 2138 3103 
Q 1681 3103 1420 2742 
Q 1159 2381 1159 1747 
Q 1159 1113 1420 752 
Q 1681 391 2138 391 
Q 2594 391 2855 752 
Q 3116 1113 3116 1747 
z
" transform="scale(0.015625)"/>
     </defs>
     <use xlink:href="#DejaVuSans-50"/>
     <use xlink:href="#DejaVuSans-44" x="60.302734"/>
     <use xlink:href="#DejaVuSans-46" x="137.304688"/>
     <use xlink:href="#DejaVuSans-20" x="194.824219"/>
     <use xlink:href="#DejaVuSans-64" x="226.611328"/>
     <use xlink:href="#DejaVuSans-75" x="290.087891"/>
     <use xlink:href="#DejaVuSans-72" x="353.466797"/>
     <use xlink:href="#DejaVuSans-61" x="394.580078"/>
     <use xlink:href="#DejaVuSans-74" x="455.859375"/>
     <use xlink:href="#DejaVuSans-69" x="495.068359"/>
     <use xlink:href="#DejaVuSans-6f" x="522.851562"/>
     <use xlink:href="#DejaVuSans-6e" x="584.033203"/>
     <use xlink:href="#DejaVuSans-20" x="647.412109"/>
     <use xlink:href="#DejaVuSans-28" x="679.199219"/>
     <use xlink:href="#DejaVuSans-41" x="718.212891"/>
     <use xlink:href="#DejaVuSans-6c" x="786.621094"/>
     <use xlink:href="#DejaVuSans-6c" x="814.404297"/>
     <use xlink:href="#DejaVuSans-20" x="842.1875"/>
     <use xlink:href="#DejaVuSans-43" x="873.974609"/>
     <use xlink:href="#DejaVuSans-6f" x="943.798828"/>
     <use xlink:href="#DejaVuSans-6c" x="1004.980469"/>
     <use xlink:href="#DejaVuSans-75" x="1032.763672"/>
     <use xlink:href="#DejaVuSans-6d" x="1096.142578"/>
     <use xlink:href="#DejaVuSans-6e" x="1193.554688"/>
     <use xlink:href="#DejaVuSans-73" x="1256.933594"/>
     <use xlink:href="#DejaVuSans-29" x="1309.033203"/>
     <use xlink:href="#DejaVuSans-20" x="1348.046875"/>
     <use xlink:href="#DejaVuSans-67" x="1379.833984"/>
     <use xlink:href="#DejaVuSans-72" x="1443.310547"/>
     <use xlink:href="#DejaVuSans-75" x="1484.423828"/>
     <use xlink:href="#DejaVuSans-70" x="1547.802734"/>
     <use xlink:href="#DejaVuSans-65" x="1611.279297"/>
     <use xlink:href="#DejaVuSans-64" x="1672.802734"/>
     <use xlink:href="#DejaVuSans-20" x="1736.279297"/>
     <use xlink:href="#DejaVuSans-62" x="1768.066406"/>
     <use xlink:href="#DejaVuSans-79" x="1831.542969"/>
     <use xlink:href="#DejaVuSans-20" x="1890.722656"/>
     <use xlink:href="#DejaVuSans-46" x="1922.509766"/>
     <use xlink:href="#DejaVuSans-69" x="1972.779297"/>
     <use xlink:href="#DejaVuSans-6c" x="2000.5625"/>
     <use xlink:href="#DejaVuSans-65" x="2028.345703"/>
    </g>
   </g>
   <g id="legend_1">
    <g id="patch_7">
     <path d="M 799.9175 95.0325 
L 838.28 95.0325 
Q 840.28 95.0325 840.28 93.0325 
L 840.28 35.32 
Q 840.28 33.32 838.28 33.32 
L 799.9175 33.32 
Q 797.9175 33.32 797.9175 35.32 
L 797.9175 93.0325 
Q 797.9175 95.0325 799.9175 95.0325 
z
" style="fill: #ffffff; opacity: 0.8; stroke: #cccccc; stroke-linejoin: miter"/>
    </g>
    <g id="text_18">
     <!-- File -->
     <g transform="translate(810.730781 44.918438) scale(0.1 -0.1)">
      <use xlink:href="#DejaVuSans-46"/>
      <use xlink:href="#DejaVuSans-69" x="50.269531"/>
      <use xlink:href="#DejaVuSans-6c" x="78.052734"/>
      <use xlink:href="#DejaVuSans-65" x="105.835938"/>
     </g>
    </g>
    <g id="patch_8">
     <path d="M 801.9175 59.596563 
L 821.9175 59.596563 
L 821.9175 52.596563 
L 801.9175 52.596563 
z
" style="fill: #e41a1c; fill-opacity: 0.5; stroke: #e41a1c; stroke-linejoin: miter"/>
    </g>
    <g id="text_19">
     <!-- 1 -->
     <g transform="translate(829.9175 59.596563) scale(0.1 -0.1)">
      <use xlink:href="#DejaVuSans-31"/>
     </g>
    </g>
    <g id="patch_9">
     <path d="M 801.9175 74.274688 
L 821.9175 74.274688 
L 821.9175 67.274688 
L 801.9175 67.274688 
z
" style="fill: #377eb8; fill-opacity: 0.5; stroke: #377eb8; stroke-linejoin: miter"/>
    </g>
    <g id="text_20">
     <!-- 3 -->
     <g transform="translate(829.9175 74.274688) scale(0.1 -0.1)">
      <use xlink:href="#DejaVuSans-33"/>
     </g>
    </g>
    <g id="patch_10">
     <path d="M 801.9175 88.952813 
L 821.9175 88.952813 
L 821.9175 81.952813 
L 801.9175 81.952813 
z
" style="fill: #4daf4a; fill-opacity: 0.5; stroke: #4daf4a; stroke-linejoin: miter"/>
    </g>
    <g id="text_21">
     <!-- 4 -->
     <g transform="translate(829.9175 88.952813) scale(0.1 -0.1)">
      <use xlink:href="#DejaVuSans-34"/>
     </g>
    </g>
   </g>
  </g>
  <g id="axes_2">
   <g id="patch_11">
    <path d="M 57.62 1124.12 
L 845.28 1124.12 
L 845.28 600.98 
L 57.62 600.98 
z
" style="fill: #ffffff"/>
   </g>
   <g id="matplotlib.axis_3">
    <g id="xtick_9">
     <g id="line2d_15">
      <g>
       <use xlink:href="#maf6fc6f8d0" x="57.62" y="1124.12" style="stroke: #000000; stroke-width: 0.8"/>
      </g>
     </g>
     <g id="text_22">
      <!-- 0.0 -->
      <g transform="translate(49.668438 1138.718437) scale(0.1 -0.1)">
       <use xlink:href="#DejaVuSans-30"/>
       <use xlink:href="#DejaVuSans-2e" x="63.623047"/>
       <use xlink:href="#DejaVuSans-30" x="95.410156"/>
      </g>
     </g>
    </g>
    <g id="xtick_10">
     <g id="line2d_16">
      <g>
       <use xlink:href="#maf6fc6f8d0" x="215.152" y="1124.12" style="stroke: #000000; stroke-width: 0.8"/>
      </g>
     </g>
     <g id="text_23">
      <!-- 0.2 -->
      <g transform="translate(207.200438 1138.718437) scale(0.1 -0.1)">
       <use xlink:href="#DejaVuSans-30"/>
       <use xlink:href="#DejaVuSans-2e" x="63.623047"/>
       <use xlink:href="#DejaVuSans-32" x="95.410156"/>
      </g>
     </g>
    </g>
    <g id="xtick_11">
     <g id="line2d_17">
      <g>
       <use xlink:href="#maf6fc6f8d0" x="372.684" y="1124.12" style="stroke: #000000; stroke-width: 0.8"/>
      </g>
     </g>
     <g id="text_24">
      <!-- 0.4 -->
      <g transform="translate(364.732438 1138.718437) scale(0.1 -0.1)">
       <use xlink:href="#DejaVuSans-30"/>
       <use xlink:href="#DejaVuSans-2e" x="63.623047"/>
       <use xlink:href="#DejaVuSans-34" x="95.410156"/>
      </g>
     </g>
    </g>
    <g id="xtick_12">
     <g id="line2d_18">
      <g>
       <use xlink:href="#maf6fc6f8d0" x="530.216" y="1124.12" style="stroke: #000000; stroke-width: 0.8"/>
      </g>
     </g>
     <g id="text_25">
      <!-- 0.6 -->
      <g transform="translate(522.264438 1138.718437) scale(0.1 -0.1)">
       <use xlink:href="#DejaVuSans-30"/>
       <use xlink:href="#DejaVuSans-2e" x="63.623047"/>
       <use xlink:href="#DejaVuSans-36" x="95.410156"/>
      </g>
     </g>
    </g>
    <g id="xtick_13">
     <g id="line2d_19">
      <g>
       <use xlink:href="#maf6fc6f8d0" x="687.748" y="1124.12" style="stroke: #000000; stroke-width: 0.8"/>
      </g>
     </g>
     <g id="text_26">
      <!-- 0.8 -->
      <g transform="translate(679.796438 1138.718437) scale(0.1 -0.1)">
       <defs>
        <path id="DejaVuSans-38" d="M 2034 2216 
Q 1584 2216 1326 1975 
Q 1069 1734 1069 1313 
Q 1069 891 1326 650 
Q 1584 409 2034 409 
Q 2484 409 2743 651 
Q 3003 894 3003 1313 
Q 3003 1734 2745 1975 
Q 2488 2216 2034 2216 
z
M 1403 2484 
Q 997 2584 770 2862 
Q 544 3141 544 3541 
Q 544 4100 942 4425 
Q 1341 4750 2034 4750 
Q 2731 4750 3128 4425 
Q 3525 4100 3525 3541 
Q 3525 3141 3298 2862 
Q 3072 2584 2669 2484 
Q 3125 2378 3379 2068 
Q 3634 1759 3634 1313 
Q 3634 634 3220 271 
Q 2806 -91 2034 -91 
Q 1263 -91 848 271 
Q 434 634 434 1313 
Q 434 1759 690 2068 
Q 947 2378 1403 2484 
z
M 1172 3481 
Q 1172 3119 1398 2916 
Q 1625 2713 2034 2713 
Q 2441 2713 2670 2916 
Q 2900 3119 2900 3481 
Q 2900 3844 2670 4047 
Q 2441 4250 2034 4250 
Q 1625 4250 1398 4047 
Q 1172 3844 1172 3481 
z
" transform="scale(0.015625)"/>
       </defs>
       <use xlink:href="#DejaVuSans-30"/>
       <use xlink:href="#DejaVuSans-2e" x="63.623047"/>
       <use xlink:href="#DejaVuSans-38" x="95.410156"/>
      </g>
     </g>
    </g>
    <g id="xtick_14">
     <g id="line2d_20">
      <g>
       <use xlink:href="#maf6fc6f8d0" x="845.28" y="1124.12" style="stroke: #000000; stroke-width: 0.8"/>
      </g>
     </g>
     <g id="text_27">
      <!-- 1.0 -->
      <g transform="translate(837.328438 1138.718437) scale(0.1 -0.1)">
       <use xlink:href="#DejaVuSans-31"/>
       <use xlink:href="#DejaVuSans-2e" x="63.623047"/>
       <use xlink:href="#DejaVuSans-30" x="95.410156"/>
      </g>
     </g>
    </g>
   </g>
   <g id="matplotlib.axis_4">
    <g id="ytick_7">
     <g id="line2d_21">
      <g>
       <use xlink:href="#mfcf3bf0c70" x="57.62" y="1124.12" style="stroke: #000000; stroke-width: 0.8"/>
      </g>
     </g>
     <g id="text_28">
      <!-- 0.0 -->
      <g transform="translate(34.716875 1127.919219) scale(0.1 -0.1)">
       <use xlink:href="#DejaVuSans-30"/>
       <use xlink:href="#DejaVuSans-2e" x="63.623047"/>
       <use xlink:href="#DejaVuSans-30" x="95.410156"/>
      </g>
     </g>
    </g>
    <g id="ytick_8">
     <g id="line2d_22">
      <g>
       <use xlink:href="#mfcf3bf0c70" x="57.62" y="1019.492" style="stroke: #000000; stroke-width: 0.8"/>
      </g>
     </g>
     <g id="text_29">
      <!-- 0.2 -->
      <g transform="translate(34.716875 1023.291219) scale(0.1 -0.1)">
       <use xlink:href="#DejaVuSans-30"/>
       <use xlink:href="#DejaVuSans-2e" x="63.623047"/>
       <use xlink:href="#DejaVuSans-32" x="95.410156"/>
      </g>
     </g>
    </g>
    <g id="ytick_9">
     <g id="line2d_23">
      <g>
       <use xlink:href="#mfcf3bf0c70" x="57.62" y="914.864" style="stroke: #000000; stroke-width: 0.8"/>
      </g>
     </g>
     <g id="text_30">
      <!-- 0.4 -->
      <g transform="translate(34.716875 918.663219) scale(0.1 -0.1)">
       <use xlink:href="#DejaVuSans-30"/>
       <use xlink:href="#DejaVuSans-2e" x="63.623047"/>
       <use xlink:href="#DejaVuSans-34" x="95.410156"/>
      </g>
     </g>
    </g>
    <g id="ytick_10">
     <g id="line2d_24">
      <g>
       <use xlink:href="#mfcf3bf0c70" x="57.62" y="810.236" style="stroke: #000000; stroke-width: 0.8"/>
      </g>
     </g>
     <g id="text_31">
      <!-- 0.6 -->
      <g transform="translate(34.716875 814.035219) scale(0.1 -0.1)">
       <use xlink:href="#DejaVuSans-30"/>
       <use xlink:href="#DejaVuSans-2e" x="63.623047"/>
       <use xlink:href="#DejaVuSans-36" x="95.410156"/>
      </g>
     </g>
    </g>
    <g id="ytick_11">
     <g id="line2d_25">
      <g>
       <use xlink:href="#mfcf3bf0c70" x="57.62" y="705.608" style="stroke: #000000; stroke-width: 0.8"/>
      </g>
     </g>
     <g id="text_32">
      <!-- 0.8 -->
      <g transform="translate(34.716875 709.407219) scale(0.1 -0.1)">
       <use xlink:href="#DejaVuSans-30"/>
       <use xlink:href="#DejaVuSans-2e" x="63.623047"/>
       <use xlink:href="#DejaVuSans-38" x="95.410156"/>
      </g>
     </g>
    </g>
    <g id="ytick_12">
     <g id="line2d_26">
      <g>
       <use xlink:href="#mfcf3bf0c70" x="57.62" y="600.98" style="stroke: #000000; stroke-width: 0.8"/>
      </g>
     </g>
     <g id="text_33">
      <!-- 1.0 -->
      <g transform="translate(34.716875 604.779219) scale(0.1 -0.1)">
       <use xlink:href="#DejaVuSans-31"/>
       <use xlink:href="#DejaVuSans-2e" x="63.623047"/>
       <use xlink:href="#DejaVuSans-30" x="95.410156"/>
      </g>
     </g>
    </g>
   </g>
   <g id="patch_12">
    <path d="M 57.62 1124.12 
L 57.62 600.98 
" style="fill: none; stroke: #000000; stroke-width: 0.8; stroke-linejoin: miter; stroke-linecap: square"/>
   </g>
   <g id="patch_13">
    <path d="M 845.28 1124.12 
L 845.28 600.98 
" style="fill: none; stroke: #000000; stroke-width: 0.8; stroke-linejoin: miter; stroke-linecap: square"/>
   </g>
   <g id="patch_14">
    <path d="M 57.62 1124.12 
L 845.28 1124.12 
" style="fill: none; stroke: #000000; stroke-width: 0.8; stroke-linejoin: miter; stroke-linecap: square"/>
   </g>
   <g id="patch_15">
    <path d="M 57.62 600.98 
L 845.28 600.98 
" style="fill: none; stroke: #000000; stroke-width: 0.8; stroke-linejoin: miter; stroke-linecap: square"/>
   </g>
  </g>
 </g>
 <defs>
  <clipPath id="pceaced2bbf">
   <rect x="57.62" y="28.32" width="787.66" height="523.14"/>
  </clipPath>
 </defs>
</svg>
